<svg width="80" height="80" viewBox="0 0 80 80" fill="none" xmlns="http://www.w3.org/2000/svg">
  <path fill-rule="evenodd" clip-rule="evenodd" d="M57.2562 11.7113V23.5185L68.9959 23.5185V11.7113L57.2562 11.7113Z" fill="#70CDA7"/>
  <path fill-rule="evenodd" clip-rule="evenodd" d="M57.2562 58.7458V70.553L68.9959 70.553V58.7458H57.2562Z" fill="#70CDA7"/>
  <path fill-rule="evenodd" clip-rule="evenodd" d="M11.6439 11.7113V23.5185L23.3835 23.5185L23.3835 11.7113L11.6439 11.7113Z" fill="#70CDA7"/>
  <path fill-rule="evenodd" clip-rule="evenodd" d="M11.6439 58.7458V70.553L23.3835 70.553L23.3835 58.7458H11.6439Z" fill="#70CDA7"/>
  <path d="M17.7811 40.6901L8.89057 31.7484L0 40.6901L8.89058 49.6318L17.7811 40.6901Z" fill="#70CDA7"/>
  <path d="M40.4576 62.1166L49.3481 71.0583L40.4576 80L31.567 71.0583L40.4576 62.1166Z" fill="#70CDA7"/>
  <path d="M71.1095 31.7484L80 40.6901L71.1095 49.6318L62.2189 40.6901L71.1095 31.7484Z" fill="#70CDA7"/>
  <path d="M40.4576 0L49.3481 8.9417L40.4576 17.8834L31.567 8.9417L40.4576 0Z" fill="#70CDA7"/>
  <path d="M40.0438 31.7866L48.9343 40.7283L40.0438 49.67L31.1532 40.7283L40.0438 31.7866Z" fill="#70CDA7"/>
</svg>
