<?xml version="1.0" encoding="utf-8"?>
<svg width="800px" height="800px" viewBox="0 0 16 16" xmlns="http://www.w3.org/2000/svg" fill="none">
  <!-- Azure Files Icon - Based on Azure brand colors with file share motif -->
  <path fill="#2378BC" d="M15 8.004c-.184.312-.369.62-.55.932-.15.255-.292.513-.44.768-.104.179-.212.354-.317.532l-.394.668c-.213.367-.424.736-.638 1.102-.177.303-.358.605-.534.908a73.14 73.14 0 00-.585 1.016c-.032.056-.067.069-.126.069-.484-.002-.968-.001-1.453-.001-1.787 0-3.575-.001-5.362.002-.088 0-.132-.03-.174-.102-.163-.286-.333-.568-.5-.852l-.3-.52c-.161-.28-.323-.558-.486-.837l-.377-.646c-.09-.154-.178-.31-.269-.463-.172-.292-.347-.581-.517-.873-.15-.259-.295-.52-.444-.779-.102-.176-.209-.349-.311-.524-.07-.12-.137-.24-.209-.36-.022-.035-.014-.063.004-.093l.296-.512.277-.468.323-.55c.123-.21.249-.418.37-.628.123-.21.243-.42.365-.631.145-.25.29-.5.437-.75l.385-.652.39-.67c.194-.335.39-.67.58-1.008.032-.059.069-.082.137-.082.675.002 1.35.002 2.025.002h4.828c.05-.005.08.014.104.058.09.162.183.322.276.481.084.144.17.286.255.43.127.214.255.428.38.643.139.236.276.473.413.71.131.227.26.454.393.68.124.212.25.424.376.636l.401.685.52.905c.078.136.16.27.24.406l.21.369H15z"/>
  <!-- File share folder icon -->
  <path fill="#FAFDFE" d="M4.5 5.5C4.5 5.224 4.724 5 5 5h2.5l1 1H11c.276 0 .5.224.5.5v5c0 .276-.224.5-.5.5H5c-.276 0-.5-.224-.5-.5v-6z"/>
  <path fill="#2478BD" d="M5 5.5h2.293l.707.707.707.707H10.5v4.586H5.5V5.5z"/>
  <!-- File icons inside folder -->
  <path fill="#FAFDFE" d="M6 8h1.5v2.5H6z"/>
  <path fill="#FAFDFE" d="M8 8h1.5v2.5H8z"/>
  <!-- File header lines -->
  <path fill="#2378BC" d="M6.2 8.3h1.1v.3H6.2zM8.2 8.3h1.1v.3H8.2z"/>
</svg>
