<?xml version="1.0" encoding="UTF-8"?>
<svg version="1.1" xmlns="http://www.w3.org/2000/svg" width="512" height="512">
<path d="M0 0 C0.75539063 0.14824219 1.51078125 0.29648438 2.2890625 0.44921875 C5.17912326 1.64529259 5.96562263 2.4849641 7.375 5.3125 C7.8406556 8.50617275 7.84951563 11.65197542 7.8125 14.875 C7.80565186 15.77379883 7.79880371 16.67259766 7.79174805 17.59863281 C7.62610117 24.46522305 6.62549858 30.18573788 3.375 36.3125 C3.024375 36.99957031 2.67375 37.68664062 2.3125 38.39453125 C-4.91566936 51.11912106 -16.98003603 59.76178966 -28.27783203 68.60644531 C-50.35281023 85.92604272 -55.67444434 104.72064844 -60.8046875 131.37109375 C-64.22338399 148.98338797 -68.61663076 166.27979965 -73.1875 183.625 C-73.67849686 185.49381836 -73.67849686 185.49381836 -74.17941284 187.40039062 C-77.4312546 199.75049966 -80.68510075 212.0711196 -84.69506836 224.19995117 C-89.12494152 239.02705879 -87.18026796 257.11680516 -80.375 271 C-77.14232731 276.97117885 -73.80193838 281.22403081 -67.625 284.3125 C-68.625 287.3125 -68.625 287.3125 -71.1796875 288.84765625 C-86.68251425 295.97895655 -101.15766625 297.32755164 -117.625 292.3125 C-124.96299757 289.12047106 -132.11531639 285.07702541 -136.625 278.3125 C-148.77830583 281.35082646 -155.82866689 291.71837867 -162.125 301.8125 C-177.43585737 326.28222239 -200.90715558 332.44448154 -227.625 339.3125 C-228.64847534 339.59867187 -228.64847534 339.59867187 -229.69262695 339.890625 C-231.76576382 340.34323151 -233.61421778 340.42621805 -235.734375 340.41015625 C-236.48847656 340.40693359 -237.24257813 340.40371094 -238.01953125 340.40039062 C-238.79683594 340.39201172 -239.57414062 340.38363281 -240.375 340.375 C-241.16777344 340.37048828 -241.96054687 340.36597656 -242.77734375 340.36132812 C-244.72659508 340.34958565 -246.67580738 340.33165146 -248.625 340.3125 C-248.955 339.3225 -249.285 338.3325 -249.625 337.3125 C-248.61206055 335.46582031 -248.61206055 335.46582031 -247.01171875 333.390625 C-246.42777344 332.61992676 -245.84382813 331.84922852 -245.2421875 331.05517578 C-244.60539062 330.23259277 -243.96859375 329.41000977 -243.3125 328.5625 C-242.01196108 326.83771586 -240.71380426 325.11113311 -239.41796875 323.3828125 C-238.77263184 322.52461914 -238.12729492 321.66642578 -237.46240234 320.78222656 C-234.93602665 317.38642314 -232.49853359 313.94148964 -230.125 310.4375 C-229.3928125 309.36757813 -228.660625 308.29765625 -227.90625 307.1953125 C-224.56809899 301.88158302 -222.17130185 296.03306223 -219.625 290.3125 C-226.96665137 289.20390616 -234.30928633 288.10200379 -241.65258789 287.00439453 C-244.14206797 286.63152652 -246.63133281 286.25721819 -249.12036133 285.88134766 C-300.75114268 278.08841427 -349.07634638 271.87142415 -393.76171875 303.53515625 C-411.31763463 315.88147586 -429.25773356 324.81654672 -450.625 328.3125 C-451.76195312 328.50779297 -451.76195312 328.50779297 -452.921875 328.70703125 C-466.8417964 330.66942618 -483.37203151 330.80042519 -495.625 323.3125 C-497.625 320.3125 -497.625 320.3125 -497.75 317.5625 C-495.32039949 310.54365409 -487.54420725 306.38195499 -481.625 302.3125 C-482.26566406 302.34730469 -482.90632813 302.38210938 -483.56640625 302.41796875 C-492.52811716 302.69843958 -498.04065327 300.25447144 -504.625 294.3125 C-503.87510554 290.06004973 -502.1091238 288.47339393 -498.8359375 285.828125 C-485.21511361 276.49088176 -468.36166404 274.92980148 -452.34375 273.88671875 C-429.13855824 273.26575927 -429.13855824 273.26575927 -409.625 262.3125 C-403.89101908 255.68169012 -399.10782406 248.60845683 -394.5625 241.125 C-390.53338935 234.51021737 -386.16775573 228.76865017 -380.625 223.3125 C-379.903125 222.59191406 -379.18125 221.87132812 -378.4375 221.12890625 C-347.92538633 192.21455529 -309.02779023 180.46921599 -269.02734375 171.625 C-220.90140688 160.90230194 -185.3664689 145.2047618 -158.234375 102.86962891 C-155.38717596 98.34572679 -152.63327526 93.76596479 -149.875 89.1875 C-144.85777416 80.86287622 -139.68196745 72.66480107 -134.3125 64.5625 C-133.36262207 63.11786377 -133.36262207 63.11786377 -132.39355469 61.64404297 C-121.99004302 46.07656716 -109.34795182 30.32304025 -92.625 21.3125 C-91.82964844 20.85617188 -91.03429687 20.39984375 -90.21484375 19.9296875 C-76.46019425 12.45968273 -60.99426244 11.0058774 -45.73095703 9.10888672 C-34.42645716 7.68560554 -24.03934296 5.52797436 -13.32128906 1.61279297 C-8.55164718 -0.06508766 -4.96957871 -1.06734938 0 0 Z " fill="#C2996B" transform="translate(504.625,85.6875)"/>
<path d="M0 0 C0.75539063 0.14824219 1.51078125 0.29648438 2.2890625 0.44921875 C5.17912326 1.64529259 5.96562263 2.4849641 7.375 5.3125 C7.8406556 8.50617275 7.84951563 11.65197542 7.8125 14.875 C7.80565186 15.77379883 7.79880371 16.67259766 7.79174805 17.59863281 C7.62610117 24.46522305 6.62549858 30.18573788 3.375 36.3125 C3.024375 36.99957031 2.67375 37.68664062 2.3125 38.39453125 C-4.91566936 51.11912106 -16.98003603 59.76178966 -28.27783203 68.60644531 C-50.35281023 85.92604272 -55.67444434 104.72064844 -60.8046875 131.37109375 C-64.22338399 148.98338797 -68.61663076 166.27979965 -73.1875 183.625 C-73.67849686 185.49381836 -73.67849686 185.49381836 -74.17941284 187.40039062 C-77.4312546 199.75049966 -80.68510075 212.0711196 -84.69506836 224.19995117 C-89.12494152 239.02705879 -87.18026796 257.11680516 -80.375 271 C-77.14232731 276.97117885 -73.80193838 281.22403081 -67.625 284.3125 C-68.625 287.3125 -68.625 287.3125 -71.1796875 288.84765625 C-86.68251425 295.97895655 -101.15766625 297.32755164 -117.625 292.3125 C-124.96299757 289.12047106 -132.11531639 285.07702541 -136.625 278.3125 C-148.77830583 281.35082646 -155.82866689 291.71837867 -162.125 301.8125 C-177.43585737 326.28222239 -200.90715558 332.44448154 -227.625 339.3125 C-228.64847534 339.59867187 -228.64847534 339.59867187 -229.69262695 339.890625 C-231.76576382 340.34323151 -233.61421778 340.42621805 -235.734375 340.41015625 C-236.48847656 340.40693359 -237.24257813 340.40371094 -238.01953125 340.40039062 C-238.79683594 340.39201172 -239.57414062 340.38363281 -240.375 340.375 C-241.16777344 340.37048828 -241.96054687 340.36597656 -242.77734375 340.36132812 C-244.72659508 340.34958565 -246.67580738 340.33165146 -248.625 340.3125 C-248.955 339.3225 -249.285 338.3325 -249.625 337.3125 C-248.61206055 335.46582031 -248.61206055 335.46582031 -247.01171875 333.390625 C-246.42777344 332.61992676 -245.84382813 331.84922852 -245.2421875 331.05517578 C-244.60539062 330.23259277 -243.96859375 329.41000977 -243.3125 328.5625 C-242.01196108 326.83771586 -240.71380426 325.11113311 -239.41796875 323.3828125 C-238.77263184 322.52461914 -238.12729492 321.66642578 -237.46240234 320.78222656 C-234.93602665 317.38642314 -232.49853359 313.94148964 -230.125 310.4375 C-229.3928125 309.36757813 -228.660625 308.29765625 -227.90625 307.1953125 C-224.56809899 301.88158302 -222.17130185 296.03306223 -219.625 290.3125 C-226.96665137 289.20390616 -234.30928633 288.10200379 -241.65258789 287.00439453 C-244.14206797 286.63152652 -246.63133281 286.25721819 -249.12036133 285.88134766 C-300.75114268 278.08841427 -349.07634638 271.87142415 -393.76171875 303.53515625 C-411.31763463 315.88147586 -429.25773356 324.81654672 -450.625 328.3125 C-451.76195312 328.50779297 -451.76195312 328.50779297 -452.921875 328.70703125 C-466.8417964 330.66942618 -483.37203151 330.80042519 -495.625 323.3125 C-497.625 320.3125 -497.625 320.3125 -497.75 317.5625 C-495.32039949 310.54365409 -487.54420725 306.38195499 -481.625 302.3125 C-482.26566406 302.34730469 -482.90632813 302.38210938 -483.56640625 302.41796875 C-492.52811716 302.69843958 -498.04065327 300.25447144 -504.625 294.3125 C-503.87510554 290.06004973 -502.1091238 288.47339393 -498.8359375 285.828125 C-485.21511361 276.49088176 -468.36166404 274.92980148 -452.34375 273.88671875 C-429.13855824 273.26575927 -429.13855824 273.26575927 -409.625 262.3125 C-403.89101908 255.68169012 -399.10782406 248.60845683 -394.5625 241.125 C-390.53338935 234.51021737 -386.16775573 228.76865017 -380.625 223.3125 C-379.903125 222.59191406 -379.18125 221.87132812 -378.4375 221.12890625 C-347.92538633 192.21455529 -309.02779023 180.46921599 -269.02734375 171.625 C-220.90140688 160.90230194 -185.3664689 145.2047618 -158.234375 102.86962891 C-155.38717596 98.34572679 -152.63327526 93.76596479 -149.875 89.1875 C-144.85777416 80.86287622 -139.68196745 72.66480107 -134.3125 64.5625 C-133.36262207 63.11786377 -133.36262207 63.11786377 -132.39355469 61.64404297 C-121.99004302 46.07656716 -109.34795182 30.32304025 -92.625 21.3125 C-91.82964844 20.85617188 -91.03429687 20.39984375 -90.21484375 19.9296875 C-76.46019425 12.45968273 -60.99426244 11.0058774 -45.73095703 9.10888672 C-34.42645716 7.68560554 -24.03934296 5.52797436 -13.32128906 1.61279297 C-8.55164718 -0.06508766 -4.96957871 -1.06734938 0 0 Z M-26.27734375 15.75390625 C-32.40774285 17.84144978 -38.65659776 17.91530455 -45.06671143 18.16342163 C-68.16904428 19.1065436 -86.98022455 23.22046479 -104.625 39.3125 C-105.29660156 39.90289062 -105.96820313 40.49328125 -106.66015625 41.1015625 C-119.89440842 53.43903783 -128.74279074 69.78954838 -137.625 85.3125 C-146.83139054 101.32636255 -156.22808442 117.51905147 -168.625 131.3125 C-169.44097656 132.22257812 -170.25695312 133.13265625 -171.09765625 134.0703125 C-186.99684057 150.88270475 -208.3812595 159.69538458 -229.39746094 168.390625 C-231.14690263 169.1146377 -232.89092347 169.85175052 -234.6328125 170.59375 C-246.02273921 175.13507126 -258.5460323 177.0160761 -270.49609375 179.56640625 C-276.21200845 180.78737889 -281.92203112 182.03236769 -287.625 183.3125 C-288.4509668 183.49748047 -289.27693359 183.68246094 -290.12792969 183.87304688 C-320.88668787 190.92010032 -353.10137308 205.78887308 -375.625 228.3125 C-376.3571875 229.0446875 -377.089375 229.776875 -377.84375 230.53125 C-383.03076673 236.01049302 -387.25257093 241.96190572 -391.4597168 248.19506836 C-401.79289948 263.49511934 -409.13675141 273.47806539 -427.86425781 277.83325195 C-431.21232612 278.41445624 -434.48793464 278.58415673 -437.8828125 278.7421875 C-439.31920353 278.8136832 -440.75556326 278.88580985 -442.19189453 278.95849609 C-443.30978363 279.01393585 -443.30978363 279.01393585 -444.45025635 279.07049561 C-460.14883259 279.85042005 -460.14883259 279.85042005 -475.75 281.6875 C-476.80985107 281.84001221 -476.80985107 281.84001221 -477.89111328 281.99560547 C-485.59924564 283.31273424 -491.48081963 286.52529708 -496.625 292.3125 C-493.46659106 295.10372765 -491.38741657 295.70798843 -487.203125 295.82421875 C-486.17832031 295.85966797 -485.15351563 295.89511719 -484.09765625 295.93164062 C-483.03417969 295.95419922 -481.97070312 295.97675781 -480.875 296 C-479.79605469 296.03416016 -478.71710938 296.06832031 -477.60546875 296.10351562 C-474.94541623 296.18590663 -472.28568965 296.25508645 -469.625 296.3125 C-470.26781563 299.98861356 -470.59619084 301.82841177 -473.5625 304.1875 C-474.18253906 304.68765625 -474.80257813 305.1878125 -475.44140625 305.703125 C-478.73641903 308.13164962 -482.14420607 310.38679273 -485.5859375 312.6015625 C-487.83440339 314.48820629 -488.28723142 315.44772202 -488.625 318.3125 C-471.65069445 320.87112694 -453.95909814 320.76928528 -437.625 315.3125 C-436.47386719 314.99667969 -435.32273437 314.68085938 -434.13671875 314.35546875 C-416.14938826 309.10670674 -399.89773979 298.82676289 -384.42529297 288.50390625 C-354.66286839 268.80759056 -323.96206128 268.67602438 -289.6953125 272.82861328 C-282.55865303 273.68470328 -275.41295483 274.46027839 -268.26629639 275.22766113 C-265.81306715 275.49317424 -263.36091575 275.76737706 -260.90869141 276.04199219 C-252.10337518 277.00405494 -243.4950543 277.50973755 -234.625 277.3125 C-233.34882813 277.333125 -232.07265625 277.35375 -230.7578125 277.375 C-225.48586359 277.26545301 -221.50946622 277.0682657 -217.6875 273.1875 C-213.78486558 267.80455597 -211.63938953 261.48789933 -209.35888672 255.296875 C-208.16612709 252.07174183 -206.91796464 248.87365817 -205.625 245.6875 C-205.191875 244.58148438 -204.75875 243.47546875 -204.3125 242.3359375 C-202.22703161 238.59947329 -200.03221842 236.85844932 -196.625 234.3125 C-197.52831107 269.99328721 -211.85925349 300.55328706 -233.625 328.3125 C-224.20682216 331.30421854 -210.47783919 323.98081611 -202.08911133 319.86962891 C-192.87252619 315.09315732 -185.15097892 309.42776916 -177.625 302.3125 C-176.65433594 301.45978516 -176.65433594 301.45978516 -175.6640625 300.58984375 C-159.06700856 285.35639753 -148.58221197 262.33670634 -141.625 241.3125 C-140.965 241.3125 -140.305 241.3125 -139.625 241.3125 C-138.46139533 244.80331401 -138.3134502 248.1101192 -138.125 251.75 C-137.85467789 257.60189358 -137.85467789 257.60189358 -136.625 263.3125 C-124.47384731 261.2213714 -114.60456212 247.66652757 -107.87744141 238.26220703 C-85.40288362 205.51857255 -77.37593468 164.47298943 -68.98217773 126.40130615 C-59.19312274 82.00361962 -59.19312274 82.00361962 -41.625 69 C-40.88314453 68.44022461 -40.14128906 67.88044922 -39.37695312 67.30371094 C-35.26887468 64.22001647 -31.10621383 61.22797141 -26.89038086 58.29394531 C-17.29623056 51.60152461 -6.38348122 43.7527676 -4.10546875 31.5234375 C-3.85075007 29.11210065 -3.68065073 26.73583634 -3.625 24.3125 C-4.62080078 24.16554688 -4.62080078 24.16554688 -5.63671875 24.015625 C-10.95073102 23.11573387 -14.7933653 22.38361187 -18.625 18.3125 C-19.9375 16.0625 -19.9375 16.0625 -20.625 14.3125 C-22.96935311 14.19013381 -22.96935311 14.19013381 -26.27734375 15.75390625 Z " fill="#022C64" transform="translate(504.625,85.6875)"/>
<path d="M0 0 C0.21914063 1.26972656 0.43828125 2.53945313 0.6640625 3.84765625 C2.80885577 15.69195081 5.26503868 27.34276557 11.68359375 37.72265625 C13 40 13 40 13 43 C-0.34732287 43.45216778 -11.52498093 42.6416061 -23 35 C-23.66 34.34 -24.32 33.68 -25 33 C-25 22.26885589 -15.91071583 14.29464449 -9 7 C-8.319375 6.278125 -7.63875 5.55625 -6.9375 4.8125 C-2.28024194 0 -2.28024194 0 0 0 Z " fill="#BF976B" transform="translate(406,327)"/>
<path d="M0 0 C0 0.66 0 1.32 0 2 C0.66 2 1.32 2 2 2 C2 2.99 2 3.98 2 5 C2.66 5 3.32 5 4 5 C4 5.66 4 6.32 4 7 C4.66 7 5.32 7 6 7 C5.5877538 10.29796959 4.80693364 12.33464835 3.125 15.25 C-0.37666618 21.84437865 -0.90618176 29.70787839 -2 37 C-2.66 37 -3.32 37 -4 37 C-4 32.38 -4 27.76 -4 23 C-6.22656164 27.74354436 -7.46148032 31.72250715 -8 37 C-8.66 37 -9.32 37 -10 37 C-9.88487847 35.27014758 -9.75744323 33.54111249 -9.625 31.8125 C-9.55539062 30.84957031 -9.48578125 29.88664062 -9.4140625 28.89453125 C-8.99682396 25.97779768 -8.11984967 23.70857949 -7 21 C-7 20.01 -7 19.02 -7 18 C-7.99 18.33 -8.98 18.66 -10 19 C-11.14514954 21.23428872 -11.14514954 21.23428872 -12 24 C-12.35320312 25.02738281 -12.70640625 26.05476563 -13.0703125 27.11328125 C-13.41835938 28.16902344 -13.76640625 29.22476563 -14.125 30.3125 C-14.65480469 31.91544922 -14.65480469 31.91544922 -15.1953125 33.55078125 C-15.59363281 34.76314453 -15.59363281 34.76314453 -16 36 C-16.66 36 -17.32 36 -18 36 C-17.39891424 30.34979382 -15.92471317 25.33835539 -14 20 C-14.66 20 -15.32 20 -16 20 C-16.41378906 21.07314453 -16.41378906 21.07314453 -16.8359375 22.16796875 C-17.98248522 24.95738855 -19.26227115 27.62290358 -20.625 30.3125 C-21.29402344 31.63701172 -21.29402344 31.63701172 -21.9765625 32.98828125 C-22.31429688 33.65214844 -22.65203125 34.31601563 -23 35 C-24.02982513 32.34742012 -24.06014929 31.17827051 -23.13671875 28.44140625 C-19.72707164 21.66806414 -8.73226372 0 0 0 Z " fill="#A4876A" transform="translate(483,104)"/>
<path d="M0 0 C0.4875607 3.98174574 0.85106072 7.5148156 -1.1953125 11.0859375 C-4.50336753 15.02568143 -7.38872215 17.70431118 -12.65625 18.30078125 C-14.06390625 18.30658203 -14.06390625 18.30658203 -15.5 18.3125 C-16.4384375 18.32925781 -17.376875 18.34601563 -18.34375 18.36328125 C-21.42136759 17.94237179 -22.77223588 17.13023527 -25 15 C-25.625 12.75 -25.625 12.75 -25 10 C-18.62058009 0.08131288 -11.11752849 -0.44536093 0 0 Z " fill="#042D64" transform="translate(449,118)"/>
<path d="M0 0 C0.33 0.99 0.66 1.98 1 3 C0.3709375 3.64324219 -0.258125 4.28648438 -0.90625 4.94921875 C-9.4387669 13.95719216 -15.70114406 23.73993112 -21 35 C-22.02982513 32.34742012 -22.06014929 31.17827051 -21.13671875 28.44140625 C-15.75632048 17.75312181 -8.8273293 8.13043488 0 0 Z " fill="#153764" transform="translate(481,104)"/>
<path d="M0 0 C0.33 0.99 0.66 1.98 1 3 C-0.66015625 5.27734375 -0.66015625 5.27734375 -3.0625 7.9375 C-9.35461203 15.33710215 -13.83938482 23.49329321 -16 33 C-16.66 33 -17.32 33 -18 33 C-16.69775435 20.17288036 -8.95446282 8.95446282 0 0 Z " fill="#133664" transform="translate(483,107)"/>
<path d="M0 0 C0.33 0.99 0.66 1.98 1 3 C-0.328125 5.6015625 -0.328125 5.6015625 -2.25 8.625 C-6.66508903 15.9160534 -9.10116124 22.55091569 -10 31 C-10.66 31 -11.32 31 -12 31 C-11.73932786 18.74840951 -7.04377918 9.80319782 0 0 Z " fill="#163764" transform="translate(485,110)"/>
<path d="M0 0 C0.66 0 1.32 0 2 0 C1.05161684 3.06400714 0.08666664 5.84326247 -1.46875 8.65625 C-3.32136084 12.70174713 -4.00978381 16.50502674 -4.6875 20.875 C-4.81705078 21.65875 -4.94660156 22.4425 -5.08007812 23.25 C-5.39539506 25.16525842 -5.69891518 27.08245273 -6 29 C-6.66 29 -7.32 29 -8 29 C-8.71020222 18.52451733 -5.71540868 8.77723476 0 0 Z " fill="#203D65" transform="translate(487,112)"/>
<path d="M0 0 C0.99 0.33 1.98 0.66 3 1 C2.73445313 1.49628906 2.46890625 1.99257812 2.1953125 2.50390625 C-0.11620712 6.94978522 -1.78475081 11.13900324 -3 16 C-3.66 16 -4.32 16 -5 16 C-4.49228528 10.03435204 -2.61407872 5.36190101 0 0 Z " fill="#213E65" transform="translate(470,124)"/>
<path d="M0 0 C0.66 0 1.32 0 2 0 C1.25 2.9375 1.25 2.9375 0 6 C-2.125 6.875 -2.125 6.875 -4 7 C-2.79618552 4.50638429 -1.54571278 2.31856917 0 0 Z " fill="#AD8D6A" transform="translate(472,117)"/>
</svg>
