<?xml version="1.0" encoding="UTF-8"?>
<svg version="1.1" xmlns="http://www.w3.org/2000/svg" width="500" height="500">
<path d="M0 0 C2.07491119 -0.01355402 4.14981683 -0.02798406 6.22471619 -0.04324341 C10.56621684 -0.06859221 14.90721606 -0.07395908 19.2487793 -0.06689453 C24.76774986 -0.06081637 30.28396051 -0.11856096 35.80234623 -0.19355583 C40.08804092 -0.24205133 44.37308896 -0.24858117 48.65902519 -0.2439003 C50.69092224 -0.24791003 52.72284977 -0.2660959 54.75447273 -0.29970932 C68.21463865 -0.49953747 77.55992184 1.37821002 88.96757317 8.6554985 C92.108279 10.58324582 95.40815785 12.18432924 98.71484375 13.8046875 C100.02734934 14.45702 101.33984997 15.10936249 102.65234375 15.76171875 C107.31815331 18.05096552 112.01520478 20.27342448 116.71484375 22.4921875 C128.41976178 28.02029054 128.41976178 28.02029054 131.96484375 29.7421875 C132.70992188 30.10183594 133.455 30.46148437 134.22265625 30.83203125 C135.83984375 31.8046875 135.83984375 31.8046875 136.83984375 33.8046875 C136.92918781 35.22442023 136.95743353 36.64826541 136.95336914 38.07080078 C136.95329361 38.95156281 136.95321808 39.83232483 136.95314026 40.73977661 C136.94797897 41.69190033 136.94281769 42.64402405 136.9375 43.625 C136.93537758 45.08569412 136.93537758 45.08569412 136.93321228 46.57589722 C136.92760348 49.69385823 136.91504948 52.8117481 136.90234375 55.9296875 C136.89732988 58.04036355 136.89276678 60.15104072 136.88867188 62.26171875 C136.8776312 67.44273271 136.86088448 72.62370502 136.83984375 77.8046875 C151.4986825 74.54479128 151.4986825 74.54479128 166.078125 70.94921875 C167.29532227 70.6354126 168.51251953 70.32160645 169.76660156 69.99829102 C172.13168773 69.38446762 174.49448315 68.76172536 176.85449219 68.12866211 C198.13582515 62.61991649 198.13582515 62.61991649 208.33984375 68.3046875 C209.04689453 68.66763916 209.75394531 69.03059082 210.48242188 69.40454102 C212.61802685 70.50958684 214.72858765 71.65395334 216.83984375 72.8046875 C218.15114047 73.49318206 219.46359369 74.17947966 220.77734375 74.86328125 C229.45479284 79.41963659 229.45479284 79.41963659 230.83984375 80.8046875 C230.93677681 82.35289343 230.9635605 83.90553551 230.96289158 85.4567728 C230.96488263 86.46894857 230.96687368 87.48112434 230.96892506 88.52397209 C230.96601222 89.64943426 230.96309938 90.77489642 230.96009827 91.9344635 C230.9613799 93.71209042 230.9613799 93.71209042 230.96268743 95.52562898 C230.96405562 98.82984789 230.96090814 102.13400828 230.95590937 105.43822014 C230.95160818 108.99583636 230.95305106 112.55345064 230.95381165 116.11106873 C230.95433709 122.27979528 230.95118814 128.44851129 230.94557381 134.61723518 C230.9374616 143.53627586 230.93484387 152.45531141 230.93358582 161.37435537 C230.93139486 175.84340452 230.92473358 190.31244805 230.9152832 204.78149414 C230.90611022 218.84041312 230.89902883 232.89933058 230.89477539 246.95825195 C230.89438131 248.25720094 230.89438131 248.25720094 230.89397926 249.58239133 C230.89267426 253.92650135 230.89141054 258.27061138 230.89016736 262.61472142 C230.87979337 298.67804742 230.86217386 334.74136702 230.83984375 370.8046875 C229.74122009 371.35200531 228.64259644 371.89932312 227.51068115 372.46322632 C226.05495389 373.1894772 224.59924609 373.9157671 223.14355469 374.64208984 C222.42114594 375.0018541 221.69873718 375.36161835 220.95443726 375.73228455 C217.26731411 377.57295426 213.60147983 379.43749037 209.98046875 381.40625 C202.54604478 385.34276788 197.04501416 388.00812881 188.5234375 385.71875 C187.63785156 385.41710937 186.75226563 385.11546875 185.83984375 384.8046875 C185.02644531 384.56492187 184.21304687 384.32515625 183.375 384.078125 C181.73711816 383.59498968 180.10433111 383.09430908 178.4765625 382.578125 C174.4563216 381.39885434 170.36642725 380.61406685 166.265625 379.765625 C156.40811928 377.6731292 146.63175662 375.1817349 136.83984375 372.8046875 C136.8498365 373.64033989 136.8498365 373.64033989 136.86003113 374.49287415 C136.92632941 380.2838464 136.97162125 386.07471111 137.00463867 391.8659668 C137.01973819 394.02812071 137.04021946 396.19024393 137.06616211 398.35229492 C137.10249392 401.4575965 137.11955837 404.56249364 137.1328125 407.66796875 C137.14829636 408.63680496 137.16378021 409.60564117 137.17973328 410.60383606 C137.17995987 411.5045433 137.18018646 412.40525055 137.18041992 413.33325195 C137.19041267 414.52238945 137.19041267 414.52238945 137.2006073 415.73554993 C136.74131915 418.36976942 135.92176199 419.16961378 133.83984375 420.8046875 C131.29188751 422.10607851 128.75824131 423.3200557 126.15234375 424.4921875 C124.60606343 425.20419488 123.06050616 425.91777435 121.515625 426.6328125 C120.73268066 426.99439453 119.94973633 427.35597656 119.14306641 427.72851562 C109.2513514 432.35038119 99.57136036 437.41713627 89.94921875 442.57202148 C88.64885203 443.26733862 87.34206744 443.95080605 86.02870178 444.62124634 C83.85158753 445.74678277 83.85158753 445.74678277 81.99266052 447.08262634 C73.11062154 452.64399917 62.7793293 451.60620771 52.6796875 451.609375 C50.60477631 451.62292902 48.52987067 451.63735906 46.45497131 451.65261841 C42.11347066 451.67796721 37.77247144 451.68333408 33.4309082 451.67626953 C27.91193764 451.67019137 22.39572699 451.72793596 16.87734127 451.80293083 C12.59164658 451.85142633 8.30659854 451.85795617 4.02066231 451.8532753 C1.98876526 451.85728503 -0.04316227 451.8754709 -2.07478523 451.90908432 C-15.61316101 452.11007356 -25.02606465 450.18471936 -36.49732685 442.83924294 C-38.72084042 441.45584903 -41.03797979 440.33401607 -43.4140625 439.23828125 C-44.49506226 438.73409668 -44.49506226 438.73409668 -45.59790039 438.21972656 C-46.29906982 437.89713867 -47.00023926 437.57455078 -47.72265625 437.2421875 C-56.28000263 433.24529027 -64.72871003 429.05932498 -73.16015625 424.8046875 C-76.46015625 423.1546875 -79.76015625 421.5046875 -83.16015625 419.8046875 C-83.49015625 404.2946875 -83.82015625 388.7846875 -84.16015625 372.8046875 C-87.79015625 373.7946875 -91.42015625 374.7846875 -95.16015625 375.8046875 C-97.27982095 376.28709395 -99.40436976 376.74905611 -101.53515625 377.1796875 C-107.60485154 378.44698652 -113.63140832 379.85572266 -119.66015625 381.3046875 C-121.46611136 381.73191658 -123.2721004 382.15900228 -125.078125 382.5859375 C-128.17486489 383.32042438 -131.25878123 384.0860863 -134.3359375 384.8984375 C-136.13611328 385.34703125 -136.13611328 385.34703125 -137.97265625 385.8046875 C-138.98972656 386.0728125 -140.00679687 386.3409375 -141.0546875 386.6171875 C-147.8401737 387.02687723 -154.13641035 382.9549849 -160.03515625 379.9296875 C-161.34502262 379.26556688 -162.65491892 378.60150529 -163.96484375 377.9375 C-164.58938446 377.6191922 -165.21392517 377.3008844 -165.85739136 376.97293091 C-168.37427335 375.69606117 -170.89760001 374.43259743 -173.42236328 373.17138672 C-174.31263214 372.72656952 -175.202901 372.28175232 -176.12014771 371.82345581 C-176.79335052 371.48726227 -177.46655334 371.15106873 -178.16015625 370.8046875 C-178.34319233 333.94560826 -178.48419528 297.08659737 -178.56867889 260.22715576 C-178.57868476 255.87742927 -178.58903932 251.52770367 -178.59960938 247.17797852 C-178.60170786 246.31201178 -178.60380634 245.44604505 -178.60596842 244.5538369 C-178.64079685 230.52471328 -178.70388307 216.49585141 -178.77737862 202.46688316 C-178.85214158 188.07616743 -178.89661599 173.68558895 -178.91286421 159.29468697 C-178.92385166 150.41166616 -178.9585758 141.52938512 -179.02348799 132.64659198 C-179.06571537 126.55863044 -179.07857103 120.47105236 -179.06816727 114.38295493 C-179.06303321 110.86799033 -179.07100296 107.35431987 -179.11380005 103.83958435 C-179.15983641 100.03106795 -179.14409762 96.22424631 -179.12219238 92.41548157 C-179.14549511 91.30167077 -179.16879785 90.18785997 -179.19280672 89.04029733 C-179.07870073 81.73233378 -179.07870073 81.73233378 -176.39825535 79.02532804 C-174.36104766 77.72910338 -172.38724651 76.72853023 -170.16015625 75.8046875 C-169.37688965 75.3907373 -168.59362305 74.97678711 -167.78662109 74.55029297 C-167.15449707 74.26041504 -166.52237305 73.97053711 -165.87109375 73.671875 C-165.15695313 73.34058594 -164.4428125 73.00929688 -163.70703125 72.66796875 C-162.9903125 72.34183594 -162.27359375 72.01570313 -161.53515625 71.6796875 C-160.08433407 71.01107016 -158.63380761 70.34181075 -157.18359375 69.671875 C-156.49491211 69.35839111 -155.80623047 69.04490723 -155.09667969 68.72192383 C-153.36743872 67.90286706 -151.68502289 66.98659245 -150.01171875 66.05859375 C-141.86744742 62.47734567 -131.71875772 66.30272558 -123.6640625 68.76953125 C-117.89956459 70.4725323 -112.04599298 71.57847151 -106.16015625 72.8046875 C-98.90015625 74.4546875 -91.64015625 76.1046875 -84.16015625 77.8046875 C-83.83015625 62.6246875 -83.50015625 47.4446875 -83.16015625 31.8046875 C-76.89015625 28.8346875 -70.62015625 25.8646875 -64.16015625 22.8046875 C-55.11629921 18.35232711 -46.15344414 13.79668685 -37.26904297 9.03710938 C-35.96885136 8.34187472 -34.66223819 7.65849649 -33.3490448 6.98814392 C-31.17190463 5.86259561 -31.17190463 5.86259561 -29.31297302 4.52674866 C-20.43093404 -1.03462417 -10.0996418 0.00316729 0 0 Z " fill="#2E73B7" transform="translate(223.16015625,24.1953125)"/>
<path d="M0 0 C0.89972031 -0.01474869 1.79944061 -0.02949738 2.72642517 -0.04469299 C5.71262509 -0.08930366 8.69862779 -0.11748159 11.68505859 -0.1418457 C12.70918224 -0.15124491 13.73330589 -0.16064411 14.78846359 -0.17032814 C20.22207531 -0.21795851 25.65558995 -0.25160276 31.08935547 -0.27539062 C36.66325149 -0.30292874 42.23514579 -0.38191793 47.80831337 -0.47293377 C52.12393661 -0.53322515 56.43910168 -0.55270566 60.75510788 -0.56189919 C62.80660658 -0.5733802 64.85808558 -0.59994878 66.90916824 -0.64282799 C80.46300886 -0.90909698 89.85845764 0.86315113 101.34019089 8.2189846 C104.47734734 10.15149386 107.77703433 11.75051716 111.08349609 13.36987305 C112.39601572 14.02217731 113.70851792 14.67451664 115.02099609 15.3269043 C119.68680565 17.61615107 124.38385713 19.83861003 129.08349609 22.05737305 C140.78841413 27.58547609 140.78841413 27.58547609 144.33349609 29.30737305 C145.07857422 29.66702148 145.82365234 30.02666992 146.59130859 30.3972168 C148.20849609 31.36987305 148.20849609 31.36987305 149.20849609 33.36987305 C149.29784015 34.78960578 149.32608587 36.21345096 149.32202148 37.63598633 C149.32194595 38.51674835 149.32187042 39.39751038 149.3217926 40.30496216 C149.31663132 41.25708588 149.31147003 42.20920959 149.30615234 43.19018555 C149.30402992 44.65087967 149.30402992 44.65087967 149.30186462 46.14108276 C149.29625583 49.25904378 149.28370183 52.37693364 149.27099609 55.49487305 C149.26598223 57.6055491 149.26141912 59.71622627 149.25732422 61.8269043 C149.24628354 67.00791826 149.22953683 72.18889057 149.20849609 77.36987305 C163.86733484 74.10997682 163.86733484 74.10997682 178.44677734 70.5144043 C179.66397461 70.20059814 180.88117188 69.88679199 182.13525391 69.56347656 C184.50034008 68.94965316 186.86313549 68.3269109 189.22314453 67.69384766 C210.5044775 62.18510203 210.5044775 62.18510203 220.70849609 67.86987305 C221.41554688 68.23282471 222.12259766 68.59577637 222.85107422 68.96972656 C224.98667919 70.07477239 227.09723999 71.21913888 229.20849609 72.36987305 C230.51979281 73.0583676 231.83224603 73.74466521 233.14599609 74.4284668 C241.82344518 78.98482213 241.82344518 78.98482213 243.20849609 80.36987305 C243.30542915 81.91807897 243.33221285 83.47072105 243.33154392 85.02195835 C243.33353497 86.03413412 243.33552602 87.04630988 243.3375774 88.08915764 C243.33466456 89.21461981 243.33175172 90.34008197 243.32875061 91.49964905 C243.33003225 93.27727596 243.33003225 93.27727596 243.33133978 95.09081453 C243.33270797 98.39503343 243.32956049 101.69919383 243.32456172 105.00340569 C243.32026053 108.56102191 243.3217034 112.11863618 243.32246399 115.67625427 C243.32298944 121.84498082 243.31984048 128.01369683 243.31422615 134.18242073 C243.30611394 143.1014614 243.30349622 152.02049695 243.30223816 160.93954092 C243.3000472 175.40859007 243.29338592 189.87763359 243.28393555 204.34667969 C243.27476257 218.40559867 243.26768118 232.46451613 243.26342773 246.5234375 C243.26316501 247.38940349 243.26290229 248.25536949 243.2626316 249.14757688 C243.26132661 253.4916869 243.26006289 257.83579693 243.2588197 262.17990696 C243.24844572 298.24323296 243.23082621 334.30655257 243.20849609 370.36987305 C241.56056061 371.19084976 241.56056061 371.19084976 239.8793335 372.02841187 C238.42360623 372.75466275 236.96789844 373.48095265 235.51220703 374.20727539 C234.78979828 374.56703964 234.06738953 374.92680389 233.3230896 375.29747009 C229.63596645 377.13813981 225.97013217 379.00267592 222.34912109 380.97143555 C214.91469712 384.90795342 209.41366651 387.57331435 200.89208984 385.28393555 C199.56371094 384.83147461 199.56371094 384.83147461 198.20849609 384.36987305 C197.39509766 384.13010742 196.58169922 383.8903418 195.74365234 383.64331055 C194.1057705 383.16017522 192.47298346 382.65949463 190.84521484 382.14331055 C186.82497394 380.96403988 182.7350796 380.17925239 178.63427734 379.33081055 C168.77677163 377.23831475 159.00040896 374.74692045 149.20849609 372.36987305 C149.21848885 373.20552544 149.21848885 373.20552544 149.22868347 374.05805969 C149.29498175 379.84903195 149.34027359 385.63989665 149.37329102 391.43115234 C149.38839054 393.59330625 149.4088718 395.75542948 149.43481445 397.91748047 C149.47114627 401.02278205 149.48821072 404.12767919 149.50146484 407.2331543 C149.5169487 408.20199051 149.53243256 409.17082672 149.54838562 410.16902161 C149.54872551 411.52008247 149.54872551 411.52008247 149.54907227 412.8984375 C149.55906502 414.087575 149.55906502 414.087575 149.56925964 415.30073547 C149.10997149 417.93495497 148.29041434 418.73479933 146.20849609 420.36987305 C143.66053986 421.67126406 141.12689366 422.88524125 138.52099609 424.05737305 C136.97471577 424.76938043 135.4291585 425.4829599 133.88427734 426.19799805 C133.10133301 426.55958008 132.31838867 426.92116211 131.51171875 427.29370117 C121.62000374 431.91556674 111.94001271 436.98232181 102.31787109 442.13720703 C101.0181775 442.83216424 99.71204533 443.51523499 98.39929199 444.18519592 C96.21761607 445.31352834 96.21761607 445.31352834 94.34387207 446.65893555 C85.54263337 452.17037844 75.53274901 450.99534414 65.54443359 450.8581543 C63.54091275 450.84881577 61.53738039 450.84170458 59.53384399 450.8367157 C54.28932548 450.81772777 49.04551175 450.76869836 43.80126953 450.7131958 C38.43841075 450.66182547 33.07543684 450.63916382 27.71240234 450.61401367 C17.21079253 450.56057114 6.70970317 450.47535873 -3.79150391 450.36987305 C-3.79150391 450.03987305 -3.79150391 449.70987305 -3.79150391 449.36987305 C24.91849609 449.36987305 53.62849609 449.36987305 83.20849609 449.36987305 C83.20849609 301.52987305 83.20849609 153.68987305 83.20849609 1.36987305 C53.17849609 1.36987305 23.14849609 1.36987305 -7.79150391 1.36987305 C-7.79150391 2.02987305 -7.79150391 2.68987305 -7.79150391 3.36987305 C-9.11150391 3.03987305 -10.43150391 2.70987305 -11.79150391 2.36987305 C-7.88376577 -0.23528571 -4.53910695 0.0370717 0 0 Z " fill="#205B97" transform="translate(210.79150390625,24.630126953125)"/>
<path d="M0 0 C0.99 0.495 0.99 0.495 2 1 C0.6696875 1.5878125 0.6696875 1.5878125 -0.6875 2.1875 C-4.10769491 3.82411217 -4.10769491 3.82411217 -6.4375 6.6875 C-9 9 -9 9 -16 9 C-16 136.38 -16 263.76 -16 395 C-14.68 395.66 -13.36 396.32 -12 397 C-13.65 396.67 -15.3 396.34 -17 396 C-17.33 380.49 -17.66 364.98 -18 349 C-21.63 349.99 -25.26 350.98 -29 352 C-31.1196647 352.48240645 -33.24421351 352.94436861 -35.375 353.375 C-41.44469529 354.64229902 -47.47125207 356.05103516 -53.5 357.5 C-55.30595511 357.92722908 -57.11194415 358.35431478 -58.91796875 358.78125 C-62.01470864 359.51573688 -65.09862498 360.2813988 -68.17578125 361.09375 C-69.97595703 361.54234375 -69.97595703 361.54234375 -71.8125 362 C-72.82957031 362.268125 -73.84664062 362.53625 -74.89453125 362.8125 C-81.68001745 363.22218973 -87.9762541 359.1502974 -93.875 356.125 C-95.18486637 355.46087938 -96.49476267 354.79681779 -97.8046875 354.1328125 C-98.42922821 353.8145047 -99.05376892 353.4961969 -99.69723511 353.16824341 C-102.2141171 351.89137367 -104.73744376 350.62790993 -107.26220703 349.36669922 C-108.15247589 348.92188202 -109.04274475 348.47706482 -109.95999146 348.01876831 C-110.63319427 347.68257477 -111.30639709 347.34638123 -112 347 C-112.18303608 310.14092076 -112.32403903 273.28190987 -112.40852264 236.42246826 C-112.41852851 232.07274177 -112.42888307 227.72301617 -112.43945312 223.37329102 C-112.44155161 222.50732428 -112.44365009 221.64135755 -112.44581217 220.7491494 C-112.4806406 206.72002578 -112.54372682 192.69116391 -112.61722237 178.66219566 C-112.69198533 164.27147993 -112.73645974 149.88090145 -112.75270796 135.48999947 C-112.76369541 126.60697866 -112.79841955 117.72469762 -112.86333174 108.84190448 C-112.90555912 102.75394294 -112.91841478 96.66636486 -112.90801102 90.57826743 C-112.90287696 87.06330283 -112.91084671 83.54963237 -112.9536438 80.03489685 C-112.99968016 76.22638045 -112.98394137 72.41955881 -112.96203613 68.61079407 C-112.98533886 67.49698327 -113.0086416 66.38317247 -113.03265047 65.23560983 C-112.91854448 57.92764628 -112.91854448 57.92764628 -110.2380991 55.22064054 C-108.20089141 53.92441588 -106.22709026 52.92384273 -104 52 C-103.2167334 51.5860498 -102.4334668 51.17209961 -101.62646484 50.74560547 C-100.67827881 50.31078857 -100.67827881 50.31078857 -99.7109375 49.8671875 C-98.99679688 49.53589844 -98.28265625 49.20460937 -97.546875 48.86328125 C-96.47179687 48.37408203 -96.47179687 48.37408203 -95.375 47.875 C-93.92417782 47.20638266 -92.47365136 46.53712325 -91.0234375 45.8671875 C-90.33475586 45.55370361 -89.64607422 45.24021973 -88.93652344 44.91723633 C-87.20728247 44.09817956 -85.52486664 43.18190495 -83.8515625 42.25390625 C-75.70729117 38.67265817 -65.55860147 42.49803808 -57.50390625 44.96484375 C-51.73940834 46.6678448 -45.88583673 47.77378401 -40 49 C-32.74 50.65 -25.48 52.3 -18 54 C-17.67 38.82 -17.34 23.64 -17 8 C-11.39 5.36 -5.78 2.72 0 0 Z " fill="#5192CE" transform="translate(157,48)"/>
<path d="M0 0 C0.89972031 -0.01474869 1.79944061 -0.02949738 2.72642517 -0.04469299 C5.71262509 -0.08930366 8.69862779 -0.11748159 11.68505859 -0.1418457 C12.70918224 -0.15124491 13.73330589 -0.16064411 14.78846359 -0.17032814 C20.22207531 -0.21795851 25.65558995 -0.25160276 31.08935547 -0.27539062 C36.66325149 -0.30292874 42.23514579 -0.38191793 47.80831337 -0.47293377 C52.12393661 -0.53322515 56.43910168 -0.55270566 60.75510788 -0.56189919 C62.80660658 -0.5733802 64.85808558 -0.59994878 66.90916824 -0.64282799 C80.46300886 -0.90909698 89.85845764 0.86315113 101.34019089 8.2189846 C104.47734734 10.15149386 107.77703433 11.75051716 111.08349609 13.36987305 C112.39601572 14.02217731 113.70851792 14.67451664 115.02099609 15.3269043 C119.68680565 17.61615107 124.38385713 19.83861003 129.08349609 22.05737305 C140.78841413 27.58547609 140.78841413 27.58547609 144.33349609 29.30737305 C145.07857422 29.66702148 145.82365234 30.02666992 146.59130859 30.3972168 C148.20849609 31.36987305 148.20849609 31.36987305 149.20849609 33.36987305 C149.29784015 34.78960578 149.32608587 36.21345096 149.32202148 37.63598633 C149.32194595 38.51674835 149.32187042 39.39751038 149.3217926 40.30496216 C149.31663132 41.25708588 149.31147003 42.20920959 149.30615234 43.19018555 C149.30402992 44.65087967 149.30402992 44.65087967 149.30186462 46.14108276 C149.29625583 49.25904378 149.28370183 52.37693364 149.27099609 55.49487305 C149.26598223 57.6055491 149.26141912 59.71622627 149.25732422 61.8269043 C149.24628354 67.00791826 149.22953683 72.18889057 149.20849609 77.36987305 C150.25650391 77.15331055 151.30451172 76.93674805 152.38427734 76.71362305 C153.76315236 76.43221998 155.14206035 76.15097841 156.52099609 75.86987305 C157.21128906 75.72678711 157.90158203 75.58370117 158.61279297 75.4362793 C161.53374382 74.8436226 164.21957732 74.36987305 167.20849609 74.36987305 C167.20849609 75.02987305 167.20849609 75.68987305 167.20849609 76.36987305 C164.62596717 76.87436707 162.04260907 77.37361606 159.45849609 77.86987305 C158.72888672 78.01295898 157.99927734 78.15604492 157.24755859 78.3034668 C153.81506078 78.95876183 150.71680119 79.36987305 147.20849609 79.36987305 C147.20849609 175.39987305 147.20849609 271.42987305 147.20849609 370.36987305 C147.86849609 370.69987305 148.52849609 371.02987305 149.20849609 371.36987305 C149.28446815 377.8659721 149.33706281 384.3619569 149.37329102 390.85839844 C149.38839134 393.06905397 149.40887319 395.27967948 149.43481445 397.49023438 C149.47114264 400.66503298 149.48820993 403.83943602 149.50146484 407.0144043 C149.5169487 408.00511429 149.53243256 408.99582428 149.54838562 410.01655579 C149.54872551 411.39764778 149.54872551 411.39764778 149.54907227 412.80664062 C149.55906502 414.02242546 149.55906502 414.02242546 149.56925964 415.26277161 C149.11337658 417.92543489 148.31493339 418.72267577 146.20849609 420.36987305 C143.66053986 421.67126406 141.12689366 422.88524125 138.52099609 424.05737305 C136.97471577 424.76938043 135.4291585 425.4829599 133.88427734 426.19799805 C133.10133301 426.55958008 132.31838867 426.92116211 131.51171875 427.29370117 C121.62000374 431.91556674 111.94001271 436.98232181 102.31787109 442.13720703 C101.0181775 442.83216424 99.71204533 443.51523499 98.39929199 444.18519592 C96.21761607 445.31352834 96.21761607 445.31352834 94.34387207 446.65893555 C85.54263337 452.17037844 75.53274901 450.99534414 65.54443359 450.8581543 C63.54091275 450.84881577 61.53738039 450.84170458 59.53384399 450.8367157 C54.28932548 450.81772777 49.04551175 450.76869836 43.80126953 450.7131958 C38.43841075 450.66182547 33.07543684 450.63916382 27.71240234 450.61401367 C17.21079253 450.56057114 6.70970317 450.47535873 -3.79150391 450.36987305 C-3.79150391 450.03987305 -3.79150391 449.70987305 -3.79150391 449.36987305 C24.91849609 449.36987305 53.62849609 449.36987305 83.20849609 449.36987305 C83.20849609 301.52987305 83.20849609 153.68987305 83.20849609 1.36987305 C53.17849609 1.36987305 23.14849609 1.36987305 -7.79150391 1.36987305 C-7.79150391 2.02987305 -7.79150391 2.68987305 -7.79150391 3.36987305 C-9.11150391 3.03987305 -10.43150391 2.70987305 -11.79150391 2.36987305 C-7.88376577 -0.23528571 -4.53910695 0.0370717 0 0 Z " fill="#5394CF" transform="translate(210.79150390625,24.630126953125)"/>
<path d="M0 0 C0.99 0 1.98 0 3 0 C3 147.84 3 295.68 3 448 C-7.12623853 445.74972477 -7.12623853 445.74972477 -10.91015625 443.8984375 C-12.16481689 443.29298096 -12.16481689 443.29298096 -13.44482422 442.67529297 C-14.30865723 442.24619629 -15.17249023 441.81709961 -16.0625 441.375 C-17.43559326 440.70621826 -17.43559326 440.70621826 -18.83642578 440.02392578 C-21.56258751 438.69245603 -24.28180618 437.34764599 -27 436 C-28.46470105 435.28095924 -29.92953315 434.56218534 -31.39453125 433.84375 C-40.36547799 429.4204023 -49.20041598 424.75379827 -58 420 C-58 419.34 -58 418.68 -58 418 C-59.32 417.67 -60.64 417.34 -62 417 C-62 289.62 -62 162.24 -62 31 C-58.535 30.505 -58.535 30.505 -55 30 C-52.66274199 29.25124046 -52.66274199 29.25124046 -51 28 C-50.67 27.01 -50.34 26.02 -50 25 C-48.3364521 24.32558869 -46.66933058 23.6599679 -45 23 C-44.44441406 22.39542969 -43.88882813 21.79085937 -43.31640625 21.16796875 C-40.27396307 18.3204882 -37.03099447 16.9257504 -33.25 15.25 C-31.73226845 14.55775064 -30.21536186 13.86369018 -28.69921875 13.16796875 C-27.92497559 12.81395996 -27.15073242 12.45995117 -26.35302734 12.09521484 C-22.55190146 10.3259836 -18.80643752 8.4490868 -15.0625 6.5625 C-14.0430127 6.04961426 -14.0430127 6.04961426 -13.00292969 5.52636719 C-11.33452629 4.68575184 -9.66717534 3.84304831 -8 3 C-5.29120665 1.64560332 -2.99066732 1.93498549 0 2 C0 1.34 0 0.68 0 0 Z " fill="#205B97" transform="translate(203,26)"/>
<path d="M0 0 C6.88263623 0.40605523 11.50036711 1.82748224 17.4375 5.25 C18.91487257 6.06859694 20.39273562 6.8863093 21.87109375 7.703125 C22.5760498 8.09822266 23.28100586 8.49332031 24.00732422 8.90039062 C27.38270387 10.7630113 30.84676975 12.43896907 34.3125 14.125 C36 15 36 15 37 16 C37.09693306 17.54820593 37.12371675 19.10084801 37.12304783 20.6520853 C37.12503888 21.66426107 37.12702993 22.67643684 37.12908131 23.71928459 C37.12616847 24.84474676 37.12325563 25.97020892 37.12025452 27.129776 C37.12110894 28.31486061 37.12196337 29.49994522 37.12284368 30.72094148 C37.12421187 34.02516039 37.12106439 37.32932078 37.11606562 40.63353264 C37.11176443 44.19114886 37.11320731 47.74876314 37.1139679 51.30638123 C37.11449334 57.47510778 37.11134439 63.64382379 37.10573006 69.81254768 C37.09761785 78.73158836 37.09500012 87.65062391 37.09374207 96.56966787 C37.09155111 111.03871702 37.08488983 125.50776055 37.07543945 139.97680664 C37.06626647 154.03572562 37.05918508 168.09464308 37.05493164 182.15356445 C37.05466892 183.01953045 37.05440619 183.88549644 37.05413551 184.77770383 C37.05283051 189.12181385 37.05156679 193.46592388 37.05032361 197.81003392 C37.03994962 233.87335992 37.02233011 269.93667952 37 306 C35.35206451 306.82097672 35.35206451 306.82097672 33.6708374 307.65853882 C32.21511014 308.3847897 30.75940234 309.1110796 29.30371094 309.83740234 C28.58130219 310.1971666 27.85889343 310.55693085 27.11459351 310.92759705 C23.42746884 312.76826752 19.76166694 314.63285754 16.140625 316.6015625 C8.62643776 320.57792014 3.1569544 323.18596841 -5.4609375 320.859375 C-6.29882812 320.57578125 -7.13671875 320.2921875 -8 320 C-9.41613779 319.62300769 -10.83271901 319.2476715 -12.25 318.875 C-13.1575 318.58625 -14.065 318.2975 -15 318 C-15 317.67 -15 317.34 -15 317 C-12.36 317 -9.72 317 -7 317 C-7 317.66 -7 318.32 -7 319 C-3.37 319.33 0.26 319.66 4 320 C4 214.73 4 109.46 4 1 C2.68 0.67 1.36 0.34 0 0 Z " fill="#5696CE" transform="translate(417,89)"/>
<path d="M0 0 C0 103.95 0 207.9 0 315 C-7.75956061 314.22404394 -12.2094566 313.4856107 -18.75 310.125 C-19.46542969 309.77308594 -20.18085937 309.42117188 -20.91796875 309.05859375 C-22.95329283 308.0540026 -24.97676895 307.0286892 -27 306 C-28.99971918 304.99943855 -30.99969379 303.99938734 -33 303 C-33.18303608 266.14092076 -33.32403903 229.28190987 -33.40852264 192.42246826 C-33.41852851 188.07274177 -33.42888307 183.72301617 -33.43945312 179.37329102 C-33.44155161 178.50732428 -33.44365009 177.64135755 -33.44581217 176.7491494 C-33.4806406 162.72002578 -33.54372682 148.69116391 -33.61722237 134.66219566 C-33.69198533 120.27147993 -33.73645974 105.88090145 -33.75270796 91.48999947 C-33.76369541 82.60697866 -33.79841955 73.72469762 -33.86333174 64.84190448 C-33.90555912 58.75394294 -33.91841478 52.66636486 -33.90801102 46.57826743 C-33.90287696 43.06330283 -33.91084671 39.54963237 -33.9536438 36.03489685 C-33.99968016 32.22638045 -33.98394137 28.41955881 -33.96203613 24.61079407 C-33.98533886 23.49698327 -34.0086416 22.38317247 -34.03265047 21.23560983 C-33.91893738 13.95280925 -33.91893738 13.95280925 -31.29500484 11.23215902 C-29.23313651 9.90143967 -27.27692181 8.90821407 -25 8 C-24.29500508 7.71342209 -23.59001016 7.42684417 -22.86365175 7.13158208 C-20.96904652 6.40306233 -19.06493954 5.78395319 -17.125 5.1875 C-16.46242188 4.97158203 -15.79984375 4.75566406 -15.1171875 4.53320312 C-10.32775298 3 -10.32775298 3 -8 3 C-7.01 2.505 -6.02 2.01 -5 1.5 C-2 0 -2 0 0 0 Z " fill="#27609A" transform="translate(78,92)"/>
<path d="M0 0 C2.64 0 5.28 0 8 0 C8 15.84 8 31.68 8 48 C9.32 48.66 10.64 49.32 12 50 C10.35 49.67 8.7 49.34 7 49 C6.67 33.49 6.34 17.98 6 2 C0.555 3.485 0.555 3.485 -5 5 C-7.20295303 5.50332371 -9.41079348 5.98625032 -11.625 6.4375 C-15.62361377 7.26556287 -19.60234159 8.1345101 -23.56640625 9.11328125 C-24.71858643 9.39570679 -24.71858643 9.39570679 -25.89404297 9.68383789 C-27.39863476 10.05526096 -28.9016502 10.43314167 -30.40283203 10.81811523 C-35.6681374 12.11062087 -35.6681374 12.11062087 -39 11 C-38.34 11 -37.68 11 -37 11 C-37 10.34 -37 9.68 -37 9 C-32.38 8.67 -27.76 8.34 -23 8 C-23 7.34 -23 6.68 -23 6 C-19.7 5.67 -16.4 5.34 -13 5 C-13 4.34 -13 3.68 -13 3 C-10.35541621 1.67770811 -8.32238699 1.90322806 -5.375 1.9375 C-3.87066406 1.95103516 -3.87066406 1.95103516 -2.3359375 1.96484375 C-1.56507813 1.97644531 -0.79421875 1.98804688 0 2 C0 1.34 0 0.68 0 0 Z " fill="#C5DFEF" transform="translate(133,395)"/>
<path d="M0 0 C1.65 0 3.3 0 5 0 C4.34 0.33 3.68 0.66 3 1 C3 1.66 3 2.32 3 3 C-20.1684417 15.48598655 -20.1684417 15.48598655 -27 18 C-27.66 17.67 -28.32 17.34 -29 17 C-25.67692308 13.06153846 -25.67692308 13.06153846 -22.25 12.75 C-21.5075 12.8325 -20.765 12.915 -20 13 C-20 11.35 -20 9.7 -20 8 C-19.11248047 7.96132813 -19.11248047 7.96132813 -18.20703125 7.921875 C-12.77509858 7.53198097 -10.15191405 6.70305848 -6 3 C-2.6875 1.75 -2.6875 1.75 0 1 C0 0.67 0 0.34 0 0 Z " fill="#9BBFDC" transform="translate(351,443)"/>
<path d="M0 0 C0.66 0.33 1.32 0.66 2 1 C0.6696875 1.5878125 0.6696875 1.5878125 -0.6875 2.1875 C-4.10769491 3.82411217 -4.10769491 3.82411217 -6.4375 6.6875 C-9 9 -9 9 -16 9 C-16 24.51 -16 40.02 -16 56 C-17.65 55.67 -19.3 55.34 -21 55 C-19.515 54.505 -19.515 54.505 -18 54 C-17.67 38.82 -17.34 23.64 -17 8 C-11.39 5.36 -5.78 2.72 0 0 Z " fill="#E3F6FD" transform="translate(157,48)"/>
<path d="M0 0 C-0.66 0.33 -1.32 0.66 -2 1 C-2 1.66 -2 2.32 -2 3 C-7.07476794 4.26305335 -11.72796354 5.27036084 -17 5 C-17 5.66 -17 6.32 -17 7 C-17.9178125 7.06058594 -18.835625 7.12117188 -19.78125 7.18359375 C-26.218508 7.62311242 -32.60935705 8.10530999 -39 9 C-33.4997953 5.94887689 -27.24267365 4.88648931 -21.1875 3.375 C-19.92873047 3.05015625 -18.66996094 2.7253125 -17.37304688 2.390625 C-16.15037109 2.08382812 -14.92769531 1.77703125 -13.66796875 1.4609375 C-12.55703857 1.18040527 -11.4461084 0.89987305 -10.30151367 0.61083984 C-6.7989347 -0.03720072 -3.55404547 -0.10525085 0 0 Z " fill="#8FAEC9" transform="translate(417,90)"/>
<path d="M0 0 C1.6065676 0.25620684 3.2102483 0.53055871 4.8125 0.8125 C6.15248047 1.03873047 6.15248047 1.03873047 7.51953125 1.26953125 C10.23833846 2.07018786 11.12654653 2.95476856 13 5 C13.99 5.33 14.98 5.66 16 6 C16 21.51 16 37.02 16 53 C15.67 53 15.34 53 15 53 C15 37.82 15 22.64 15 7 C13.35 6.67 11.7 6.34 10 6 C8.2146857 5.35103174 6.44305392 4.66312895 4.6875 3.9375 C3.36298828 3.39416016 3.36298828 3.39416016 2.01171875 2.83984375 C1.34785156 2.56269531 0.68398438 2.28554688 0 2 C0 1.34 0 0.68 0 0 Z " fill="#5F90BA" transform="translate(342,51)"/>
<path d="M0 0 C-4.68224104 3.73720157 -10.30392547 6.95246206 -16.4296875 7.03125 C-18.625 6.75 -18.625 6.75 -22 6 C-21.67 5.34 -21.34 4.68 -21 4 C-19.02 4 -17.04 4 -15 4 C-15 3.34 -15 2.68 -15 2 C-9.77487721 0.53329887 -5.4185766 -0.22577402 0 0 Z " fill="#2B5B90" transform="translate(393,97)"/>
<path d="M0 0 C0.66 0 1.32 0 2 0 C2.33 0.99 2.66 1.98 3 3 C4.75369062 5.2797978 5.64149288 5.92829858 8.5 6.5 C11.39165608 7.07833122 12.13233405 7.79275843 14 10 C14.99508608 11.00488989 15.99445996 12.0055709 17 13 C9.04199322 10.707015 2.18082279 7.05100513 -5 3 C-4.360625 2.87625 -3.72125 2.7525 -3.0625 2.625 C-2.0415625 2.315625 -2.0415625 2.315625 -1 2 C-0.67 1.34 -0.34 0.68 0 0 Z " fill="#8FACC5" transform="translate(53,393)"/>
<path d="M0 0 C-1.32 0.33 -2.64 0.66 -4 1 C-4 1.66 -4 2.32 -4 3 C-5.60032137 3.84069415 -7.20541171 4.67231505 -8.8125 5.5 C-10.15248047 6.19609375 -10.15248047 6.19609375 -11.51953125 6.90625 C-14 8 -14 8 -17 8 C-18.67099977 8.31088368 -20.33871537 8.64080332 -22 9 C-19.37922927 5.91619557 -16.32098163 4.50980111 -12.6875 2.8125 C-11.02267578 2.01779297 -11.02267578 2.01779297 -9.32421875 1.20703125 C-5.95480971 -0.01640869 -3.54904529 -0.24161428 0 0 Z " fill="#93B0CB" transform="translate(82,89)"/>
<path d="M0 0 C1.98 0 3.96 0 6 0 C2.82314896 3.397599 -0.36997385 5.33657242 -5 6 C-11.2247261 5.26972487 -17.48850371 4.09680609 -23 1 C-20.36 1 -17.72 1 -15 1 C-15 1.66 -15 2.32 -15 3 C-10.05 3 -5.1 3 0 3 C0 2.01 0 1.02 0 0 Z " fill="#B8D1E4" transform="translate(425,405)"/>
<path d="M0 0 C1.65 0 3.3 0 5 0 C4.01 0.495 4.01 0.495 3 1 C3 1.66 3 2.32 3 3 C1.2335343 4.0076952 -0.53833823 5.00591714 -2.3125 6 C-3.79169922 6.8353125 -3.79169922 6.8353125 -5.30078125 7.6875 C-8 9 -8 9 -11 9 C-11 8.34 -11 7.68 -11 7 C-7.59347128 3.79385533 -4.48599743 2.25190626 0 1 C0 0.67 0 0.34 0 0 Z " fill="#91B6D7" transform="translate(351,443)"/>
<path d="M0 0 C-2.6226232 1.33819498 -5.24786599 2.6707151 -7.875 4 C-8.99455078 4.57234375 -8.99455078 4.57234375 -10.13671875 5.15625 C-10.85214844 5.5171875 -11.56757813 5.878125 -12.3046875 6.25 C-13.2944458 6.75273437 -13.2944458 6.75273437 -14.30419922 7.265625 C-16 8 -16 8 -18 8 C-17.96484375 6.17578125 -17.96484375 6.17578125 -17 4 C-14.47339192 2.83960975 -12.20088656 1.97925959 -9.5625 1.1875 C-8.86833984 0.95869141 -8.17417969 0.72988281 -7.45898438 0.49414062 C-2.28647377 -1.14323689 -2.28647377 -1.14323689 0 0 Z " fill="#A4C5E1" transform="translate(320,463)"/>
<path d="M0 0 C2.97 0.495 2.97 0.495 6 1 C6 1.66 6 2.32 6 3 C7.65 3 9.3 3 11 3 C11.66 4.65 12.32 6.3 13 8 C8.1725201 6.58707905 4.2837641 4.57025846 0 2 C0 1.34 0 0.68 0 0 Z " fill="#89A6C1" transform="translate(145,444)"/>
<path d="M0 0 C-2.88185755 2.27339111 -5.79708007 4.07542568 -9.0625 5.75 C-9.91972656 6.19859375 -10.77695312 6.6471875 -11.66015625 7.109375 C-14 8 -14 8 -17 7 C-15.625 5.5 -15.625 5.5 -14 4 C-13.34 4 -12.68 4 -12 4 C-12 3.34 -12 2.68 -12 2 C-7.82262526 0.40861915 -4.46839215 -0.21278058 0 0 Z " fill="#9FC2DC" transform="translate(448,397)"/>
<path d="M0 0 C5.80862559 2.39921492 11.40037997 5.1494892 17 8 C15 9 15 9 11.5234375 8.00390625 C10.13802064 7.53099953 8.75528453 7.05018356 7.375 6.5625 C6.66859375 6.31951172 5.9621875 6.07652344 5.234375 5.82617188 C3.48726713 5.22412795 1.74332214 4.61291983 0 4 C0 2.68 0 1.36 0 0 Z " fill="#B3CFE6" transform="translate(303,29)"/>
<path d="M0 0 C7.91216535 1.05412861 15.43109219 2.4371644 23 5 C23 5.33 23 5.66 23 6 C16.81517251 6.40335831 11.83663535 4.96471305 6 3 C4.80375 2.608125 3.6075 2.21625 2.375 1.8125 C1.59125 1.544375 0.8075 1.27625 0 1 C0 0.67 0 0.34 0 0 Z " fill="#BAD7EA" transform="translate(101,94)"/>
<path d="M0 0 C6.64951729 1.47767051 12.1245672 4.62136052 18 8 C15.01031966 9.49484017 13.25349212 8.37703537 10.125 7.375 C5.43570695 5.76692109 2.50224328 4.5040379 0 0 Z " fill="#BAD5E7" transform="translate(332,44)"/>
<path d="M0 0 C6.6 0.66 13.2 1.32 20 2 C20.33 2.99 20.66 3.98 21 5 C16.12689995 4.35401634 11.36868161 3.49028264 6.5625 2.4375 C5.32628906 2.16808594 4.09007812 1.89867187 2.81640625 1.62109375 C1.42228516 1.31365234 1.42228516 1.31365234 0 1 C0 0.67 0 0.34 0 0 Z " fill="#AFC6D9" transform="translate(364,397)"/>
<path d="M0 0 C0.66 0.33 1.32 0.66 2 1 C0.6696875 1.5878125 0.6696875 1.5878125 -0.6875 2.1875 C-4.121318 3.84891941 -4.121318 3.84891941 -6.625 6.75 C-7.40875 7.4925 -8.1925 8.235 -9 9 C-11.3125 8.8125 -11.3125 8.8125 -13 8 C-10.61664713 5.32561064 -8.12963852 3.84841988 -4.9375 2.25 C-4.05964844 1.80140625 -3.18179688 1.3528125 -2.27734375 0.890625 C-1.52582031 0.59671875 -0.77429688 0.3028125 0 0 Z " fill="#9AB4CD" transform="translate(157,48)"/>
<path d="M0 0 C-0.375 2.4375 -0.375 2.4375 -1 5 C-1.99 5.495 -1.99 5.495 -3 6 C-3.66 5.34 -4.32 4.68 -5 4 C-7.58354218 3.83312552 -7.58354218 3.83312552 -10 4 C-7.39928297 0.98864344 -3.94054294 -1.97027147 0 0 Z " fill="#7B9EC2" transform="translate(179,39)"/>
<path d="M0 0 C2.3431213 0.25561323 4.67843403 0.59270772 7 1 C7.33 1.66 7.66 2.32 8 3 C10.32156597 3.40729228 12.6568787 3.74438677 15 4 C14.01 4.495 14.01 4.495 13 5 C13 5.66 13 6.32 13 7 C8.1725201 5.58707905 4.2837641 3.57025846 0 1 C0 0.67 0 0.34 0 0 Z " fill="#A5BDD4" transform="translate(165,455)"/>
<path d="M0 0 C4.40114397 0.50298788 6.71195019 2.08772731 10 5 C7.36660729 5.97533063 6.07651653 6.019574 3.3125 5.3125 C1 4 1 4 0.1875 1.875 C0.125625 1.25625 0.06375 0.6375 0 0 Z " fill="#A0C2DE" transform="translate(443,100)"/>
<path d="M0 0 C0 1.32 0 2.64 0 4 C-3.91211733 2.84414715 -6.8745041 1.64465038 -10 -1 C-6.18510326 -2.46726798 -3.70988378 -1.43336419 0 0 Z " fill="#92AEC6" transform="translate(188,463)"/>
<path d="M0 0 C4.95 0.99 4.95 0.99 10 2 C9.67 2.99 9.34 3.98 9 5 C6.03 4.01 3.06 3.02 0 2 C0 1.34 0 0.68 0 0 Z " fill="#679BC7" transform="translate(342,51)"/>
<path d="M0 0 C2.97 0.33 5.94 0.66 9 1 C9.33 2.32 9.66 3.64 10 5 C8.51800098 4.55090939 7.03944764 4.09043436 5.5625 3.625 C4.73878906 3.36976563 3.91507813 3.11453125 3.06640625 2.8515625 C1 2 1 2 0 0 Z " fill="#92B0CA" transform="translate(189,467)"/>
<path d="M0 0 C1.45922693 0.11409593 2.91740598 0.24165544 4.375 0.375 C5.59316406 0.47941406 5.59316406 0.47941406 6.8359375 0.5859375 C9 1 9 1 11 3 C9.68 3 8.36 3 7 3 C6.67 3.66 6.34 4.32 6 5 C5.34 5 4.68 5 4 5 C4 3.68 4 2.36 4 1 C2.68 0.67 1.36 0.34 0 0 Z " fill="#A8C8E3" transform="translate(417,89)"/>
<path d="M0 0 C-4.455 1.485 -4.455 1.485 -9 3 C-8 0 -8 0 -6.1875 -1.3125 C-4 -2 -4 -2 0 0 Z " fill="#5C90C1" transform="translate(320,462)"/>
<path d="M0 0 C0.66 0 1.32 0 2 0 C2.33 1.32 2.66 2.64 3 4 C0.6875 4.6875 0.6875 4.6875 -2 5 C-3.8125 3.5625 -3.8125 3.5625 -5 2 C-3.68 2 -2.36 2 -1 2 C-0.67 1.34 -0.34 0.68 0 0 Z " fill="#5D82AE" transform="translate(53,393)"/>
<path d="M0 0 C0 1.98 0 3.96 0 6 C-0.45375 5.505 -0.9075 5.01 -1.375 4.5 C-2.87635519 2.77390663 -2.87635519 2.77390663 -5 3 C-5 2.34 -5 1.68 -5 1 C-3 0 -3 0 0 0 Z " fill="#295E90" transform="translate(420,90)"/>
</svg>
